# xmcd CD database file
#
# Track frame offsets:
#	150
#	28095
#	46751
#	79974
#	103379
#	126314
#	158347
#	184198
#	210858
#
# Disc length: 3172 seconds
#
# Revision: 0
# Processed by: cddbd v1.5.2PL0 Copyright (c) Steve Scherf et al.
# Submitted via: CDex 1.70beta2
#
DISCID=6f0c6209
DTITLE=Sven Bergman Trio - Mosaics
DYEAR=2009
DGENRE=Jazz
TTITLE0=Days of wine and roses
TTITLE1=Funky Monk
TTITLE2=Ballad for the forgotten
TTITLE3=Floating
TTITLE4=Who hot the ball
TTITLE5=Nocturnel Elegy
TTITLE6=Mosaic
TTITLE7=Postcard from Wachau
TTITLE8=Asperation
EXTD=YEAR: 2009
EXTT0=
EXTT1=
EXTT2=
EXTT3=
EXTT4=
EXTT5=
EXTT6=
EXTT7=
EXTT8=
PLAYORDER=
